<?xml version="1.0" encoding="utf-8"?>
<!-- Generator: Adobe Illustrator 24.0.1, SVG Export Plug-In . SVG Version: 6.00 Build 0)  -->
<svg version="1.1" id="Layer_1" xmlns="http://www.w3.org/2000/svg" xmlns:xlink="http://www.w3.org/1999/xlink" x="0px" y="0px"
	 viewBox="0 0 411 503.8" style="enable-background:new 0 0 411 503.8;" xml:space="preserve">
<path d="M199.1,314.9h13h0c1.2-0.1,2.4-0.1,3.5,0l26.2-17.6c2.9-1.9,6.3-2.9,9.8-3s6.9,0.7,10,2.4c0.5,0.3,0.9,0.6,1.4,1v-20.4
	c-13.8,9.7-29.8,15.7-46.6,17.5c-3.6,0.4-7.1,0.6-10.7,0.6c-3.2,0-6.4-0.2-9.6-0.5h-1.2c-2.5,0-5-0.6-7.4-1.1l-2.7-0.5l-5.8-1.6
	l-3.4-1c-2.2-0.6-4.2-1.4-6.3-2.2c-2.1-0.8-3.9-1.6-5.8-2.6l-2.9-1.4c-1.6-0.8-3.1-1.7-4.6-2.6l-2.8-1.6c-1.5-1-3-1.9-4.5-3h-0.4
	V298l1.5-1l0,0c3.1-1.7,6.5-2.5,10-2.3c3.5,0.2,6.9,1.3,9.7,3.2l26.1,17.6h0C196.6,315.2,197.9,315,199.1,314.9L199.1,314.9z"/>
<path d="M190.6,334l0.6,1v0c0.2,0.5,0.6,0.9,1,1.3c0.3,0.4,0.7,0.7,1.1,1l1,0.6l0,0c0.6,0.3,1.2,0.6,1.8,0.8c1,0.3,2,0.4,3,0.5h13h0
	c1,0,2.1-0.2,3-0.6c1.3-0.4,2.5-1,3.5-1.9c1.6-1.5,2.4-3.5,2.5-5.7c0-1-0.2-2-0.6-2.9l-0.5-0.8c-0.3-0.6-0.7-1.1-1.1-1.6l-1-0.9
	c-0.4-0.3-0.8-0.5-1.3-0.7c-0.5-0.3-1-0.6-1.6-0.8c-1-0.3-2-0.5-3-0.6h-12.9c-1.2,0-2.3,0.2-3.4,0.6h-0.6c-1,0.4-1.9,0.9-2.6,1.6
	c-1.6,1.5-2.6,3.6-2.6,5.8C189.9,332,190.1,333,190.6,334L190.6,334z"/>
<path d="M224.1,342.7l22.3,15c3.5,2.3,8,2.5,11.7,0.5c3.1-1.5,5-4.6,5.1-8v-38.3c-0.1-3.4-2.1-6.5-5.1-8c-3.7-2-8.1-1.8-11.6,0.6
	l-22.4,15l0,0c0.5,0.5,1,1,1.4,1.6l0.8,0.9l0.8,1.4v0c0.3,0.5,0.6,1,0.9,1.5c0,0.3,0,0.7,0,1c0.3,0.6,0.6,1.3,0.7,2c0.1,1,0.1,2,0,3
	c0,4.3-1.7,8.4-4.8,11.3L224.1,342.7z"/>
<path d="M411,503.8v-69.4c0-35.6-21.4-65.5-59.6-86.6l0,156H411z"/>
<path d="M107,329l94.6,117.4v-98.6h-2.5c-1.2,0.1-2.4,0.1-3.6,0l-26.2,17.6c-3.2,2.1-6.9,3.2-10.7,3.2c-3.3-0.2-6.4-1.2-9.1-3
	c-2.8-1.4-5.2-3.6-6.8-6.3c-1.7-2.7-2.5-5.8-2.5-8.9v-28.9C129,323.4,117.9,325.9,107,329L107,329z"/>
<path d="M185,321.9c0.6-0.8,1.3-1.6,2-2.3l-22.4-15c-1.8-1.2-3.9-1.9-6.1-1.9c-1.9,0-3.8,0.5-5.4,1.4c-3.1,1.5-5.1,4.6-5.2,8v38.4
	c0.1,3.4,2.1,6.5,5.1,8c3.7,2,8.2,1.8,11.7-0.5l22.4-15.1h0c-0.8-0.7-1.5-1.4-2.1-2.2c-0.6-0.8-1.1-1.6-1.4-2.5c-0.4-1-0.7-1.9-1-3
	c-0.3-1.1-0.4-2.2-0.4-3.4c0-3.3,1-6.4,3-9L185,321.9z"/>
<path d="M67.7,343.7v160h275.8v-160c-10-4.7-20.4-8.7-31-11.9l-104,128.9l-1,0.7v0c-0.5,0.1-1.1,0.1-1.6,0c-0.6,0.1-1.1,0.1-1.7,0
	l-0.9-0.7L98.6,331.8C88,335,77.7,338.9,67.7,343.7L67.7,343.7z"/>
<path d="M104.5,202h1.1v-5.7v-1l0-38.6h-0.9c-1.2-0.1-2.4-0.1-3.6,0h-1.2c-7.5,1.4-13.8,6.5-16.7,13.6c-2.9,7-2.1,15.1,2.2,21.4
	c4.3,6.3,11.4,10,19.1,9.9L104.5,202z"/>
<path d="M0,503.8h59.7v-156c-38.2,21-59.7,51-59.7,86.6L0,503.8z"/>
<path d="M271,321.5v28.9c0,3.2-0.9,6.3-2.6,8.9c-1.7,2.7-4.1,4.9-6.9,6.3c-3.1,1.7-6.5,2.4-10,2.3c-3.5-0.2-6.9-1.3-9.8-3.2
	l-26.2-17.6v0c-1.2,0.1-2.4,0.1-3.5,0h-2.5v99.4L304.2,329C293.2,325.9,282.2,323.4,271,321.5L271,321.5z"/>
<path d="M243,13.5C229,3.4,211.8-1.3,194.6,0.3c-17.2,1.6-33.2,9.3-45.1,21.8c-29.3,31-47,54.8-51.4,68.7c-3.9,12.5,1.5,44,4.2,57.9
	h3.4v-6.3c0-16.3,6.5-32,18.1-43.6c11.6-11.6,27.2-18,43.6-18h77h0c16.3,0,32,6.5,43.6,18c11.6,11.6,18.1,27.2,18.1,43.6v6.3h3.4
	c6.5-33.2,8-58.2,4.2-67.4C307.1,66.1,282.7,42.7,243,13.5L243,13.5z"/>
<path d="M244,88.7h-77c-14.2,0-27.9,5.6-37.9,15.7c-10.1,10.1-15.7,23.7-15.8,37.9v52.9c0,3.2,0,6.5,0.5,9.9
	c2.2,20.9,11.6,40.4,26.5,55.2c2,2,4.1,3.8,6.2,5.7c1.4,1.2,3,2.3,4.6,3.4c0.7,0.6,1.5,1.2,2.2,1.7c1.3,1,2.7,1.8,4,2.6l3.4,2.1
	l3.6,1.8l4.4,2.1l3.1,1.3c1.8,0.7,3.8,1.4,5.7,2l2.1,0.6c2.6,0.8,5.3,1.4,8,2l0,0c6,1.2,12.1,1.7,18.2,1.7
	c24.6-0.5,48.1-10.7,65.3-28.4c17.2-17.7,26.7-41.4,26.5-66v-50.6c0-14.2-5.7-27.8-15.7-37.9C271.8,94.4,258.2,88.8,244,88.7
	L244,88.7z"/>
<path d="M311.4,157.2h-5.7v35.7v0.5v2.4v6.7h1.1c7.6,0.1,14.6-3.7,18.9-9.9c4.2-6.2,5.1-14.2,2.3-21.2c-2.8-7-9-12.1-16.4-13.7
	L311.4,157.2z"/>
</svg>
