<?xml version="1.0" encoding="utf-8"?>
<!-- Generator: Adobe Illustrator 24.0.1, SVG Export Plug-In . SVG Version: 6.00 Build 0)  -->
<svg version="1.1" id="Layer_1" xmlns="http://www.w3.org/2000/svg" xmlns:xlink="http://www.w3.org/1999/xlink" x="0px" y="0px"
	 viewBox="0 0 577.6 34.8" style="enable-background:new 0 0 577.6 34.8;" xml:space="preserve">
<style type="text/css">
	.st0{fill:#FFFFFF;}
</style>
<g id="Layer_2_1_">
	<g id="Layer_1-2">
		<polygon class="st0" points="0,0 28.6,0 28.6,5.6 8.2,27.5 8.2,30.2 29.8,30.2 29.8,33 0,33 0,27.9 20.7,5.4 20.7,2.8 0,2.8 		"/>
		<path class="st0" d="M105.1,0.3h5.5v22c0,0,0.7,8.9,10.9,9.3c0,0,9.3-1.2,9.3-9.3v-22h5.8v21.8c0,0-0.7,12.6-15.1,12.6
			c0,0-16.4,1.7-16.4-12.4L105.1,0.3z"/>
		<polygon class="st0" points="321.9,0.9 321.9,33.4 328.3,33.4 328.3,19.2 347.8,19.2 347.8,33.4 354.5,33.4 354.5,0.9 347.7,0.9 
			347.7,16.3 328.3,16.3 328.3,0.9 		"/>
		<polygon class="st0" points="458.2,0.5 430.9,0.5 430.9,32.8 458.2,32.8 458.2,30.2 437.4,30.2 437.4,17.5 454.3,17.5 454.3,14.7 
			437.4,14.7 437.4,3.2 458.2,3.2 		"/>
		<polygon class="st0" points="533.4,33.2 533.4,0.6 543.5,0.6 556.1,29.1 568.6,0.6 577.6,0.6 577.6,33.2 571.6,33.2 571.6,7.6 
			560.2,33.2 551.8,33.2 539.6,7.6 539.6,33.2 		"/>
		<path class="st0" d="M239.1,23.3c0,0,6.3-4.2,6.3-10.5c0,0,1.3-10.2-9.6-11.7h-21.6v32.5h6.5V23.3h11.4l7.2,10.3h7.4L239.1,23.3z
			 M234.3,20.2l-13.6-0.3V3.5h12.1c3.7,0.6,6.6,3.6,7.2,7.3C240,10.8,240.7,17.7,234.3,20.2z"/>
	</g>
</g>
</svg>
